<mxfile host="app.diagrams.net" modified="2023-04-14T08:00:45.368Z" agent="Mozilla/5.0 (Windows NT 10.0; Win64; x64) AppleWebKit/537.36 (KHTML, like Gecko) Chrome/112.0.0.0 Safari/537.36 Edg/112.0.1722.39" etag="_1-fy9vq2lx6dD5OfWQH" version="21.1.7" type="github">
  <diagram name="第 1 页" id="FKI4skvmSiXQLqv38sQM">
    <mxGraphModel dx="1426" dy="1002" grid="1" gridSize="10" guides="1" tooltips="1" connect="1" arrows="1" fold="1" page="1" pageScale="1" pageWidth="3200" pageHeight="1600" math="0" shadow="0">
      <root>
        <mxCell id="0" />
        <mxCell id="1" parent="0" />
        <mxCell id="9hDTRU5c5Y0XLatv_8RX-1" value="«interface»&lt;br&gt;&lt;b&gt;Iterable&lt;br&gt;&lt;/b&gt;" style="html=1;whiteSpace=wrap;" parent="1" vertex="1">
          <mxGeometry x="870" y="400" width="110" height="50" as="geometry" />
        </mxCell>
        <mxCell id="9hDTRU5c5Y0XLatv_8RX-2" value="«interface»&lt;br&gt;&lt;b&gt;Collection&lt;br&gt;&lt;/b&gt;" style="html=1;whiteSpace=wrap;" parent="1" vertex="1">
          <mxGeometry x="870" y="490" width="110" height="50" as="geometry" />
        </mxCell>
        <mxCell id="9hDTRU5c5Y0XLatv_8RX-3" value="" style="endArrow=block;dashed=1;endFill=0;endSize=12;html=1;rounded=0;entryX=0.5;entryY=1;entryDx=0;entryDy=0;exitX=0.5;exitY=0;exitDx=0;exitDy=0;" parent="1" source="9hDTRU5c5Y0XLatv_8RX-2" target="9hDTRU5c5Y0XLatv_8RX-1" edge="1">
          <mxGeometry width="160" relative="1" as="geometry">
            <mxPoint x="960" y="500" as="sourcePoint" />
            <mxPoint x="1120" y="500" as="targetPoint" />
          </mxGeometry>
        </mxCell>
        <mxCell id="9hDTRU5c5Y0XLatv_8RX-4" value="«interface»&lt;br&gt;&lt;b&gt;List&lt;/b&gt;" style="html=1;whiteSpace=wrap;" parent="1" vertex="1">
          <mxGeometry x="700" y="640" width="110" height="50" as="geometry" />
        </mxCell>
        <mxCell id="9hDTRU5c5Y0XLatv_8RX-5" value="" style="endArrow=block;dashed=1;endFill=0;endSize=12;html=1;rounded=0;entryX=0.25;entryY=1;entryDx=0;entryDy=0;exitX=0.5;exitY=0;exitDx=0;exitDy=0;" parent="1" source="9hDTRU5c5Y0XLatv_8RX-4" target="9hDTRU5c5Y0XLatv_8RX-2" edge="1">
          <mxGeometry width="160" relative="1" as="geometry">
            <mxPoint x="960" y="710" as="sourcePoint" />
            <mxPoint x="1120" y="710" as="targetPoint" />
            <Array as="points" />
          </mxGeometry>
        </mxCell>
        <mxCell id="9hDTRU5c5Y0XLatv_8RX-6" value="«interface»&lt;br&gt;&lt;b&gt;Set&lt;br&gt;&lt;/b&gt;" style="html=1;whiteSpace=wrap;" parent="1" vertex="1">
          <mxGeometry x="1007.5" y="640" width="110" height="50" as="geometry" />
        </mxCell>
        <mxCell id="9hDTRU5c5Y0XLatv_8RX-7" value="" style="endArrow=block;dashed=1;endFill=0;endSize=12;html=1;rounded=0;entryX=0.75;entryY=1;entryDx=0;entryDy=0;exitX=0.5;exitY=0;exitDx=0;exitDy=0;" parent="1" source="9hDTRU5c5Y0XLatv_8RX-6" target="9hDTRU5c5Y0XLatv_8RX-2" edge="1">
          <mxGeometry width="160" relative="1" as="geometry">
            <mxPoint x="1070" y="610" as="sourcePoint" />
            <mxPoint x="1100" y="550" as="targetPoint" />
            <Array as="points" />
          </mxGeometry>
        </mxCell>
        <mxCell id="9hDTRU5c5Y0XLatv_8RX-8" value="ArrayList" style="swimlane;fontStyle=1;align=center;verticalAlign=top;childLayout=stackLayout;horizontal=1;startSize=26;horizontalStack=0;resizeParent=1;resizeParentMax=0;resizeLast=0;collapsible=1;marginBottom=0;whiteSpace=wrap;html=1;" parent="1" vertex="1" collapsed="1">
          <mxGeometry x="580" y="750" width="90" height="30" as="geometry">
            <mxRectangle x="440" y="750" width="160" height="86" as="alternateBounds" />
          </mxGeometry>
        </mxCell>
        <mxCell id="9hDTRU5c5Y0XLatv_8RX-9" value="+ field: type" style="text;strokeColor=none;fillColor=none;align=left;verticalAlign=top;spacingLeft=4;spacingRight=4;overflow=hidden;rotatable=0;points=[[0,0.5],[1,0.5]];portConstraint=eastwest;whiteSpace=wrap;html=1;" parent="9hDTRU5c5Y0XLatv_8RX-8" vertex="1">
          <mxGeometry y="26" width="160" height="26" as="geometry" />
        </mxCell>
        <mxCell id="9hDTRU5c5Y0XLatv_8RX-10" value="" style="line;strokeWidth=1;fillColor=none;align=left;verticalAlign=middle;spacingTop=-1;spacingLeft=3;spacingRight=3;rotatable=0;labelPosition=right;points=[];portConstraint=eastwest;strokeColor=inherit;" parent="9hDTRU5c5Y0XLatv_8RX-8" vertex="1">
          <mxGeometry y="52" width="160" height="8" as="geometry" />
        </mxCell>
        <mxCell id="9hDTRU5c5Y0XLatv_8RX-11" value="+ method(type): type" style="text;strokeColor=none;fillColor=none;align=left;verticalAlign=top;spacingLeft=4;spacingRight=4;overflow=hidden;rotatable=0;points=[[0,0.5],[1,0.5]];portConstraint=eastwest;whiteSpace=wrap;html=1;" parent="9hDTRU5c5Y0XLatv_8RX-8" vertex="1">
          <mxGeometry y="60" width="160" height="26" as="geometry" />
        </mxCell>
        <mxCell id="9hDTRU5c5Y0XLatv_8RX-12" value="" style="endArrow=block;dashed=1;endFill=0;endSize=12;html=1;rounded=0;exitX=0.5;exitY=0;exitDx=0;exitDy=0;entryX=0.25;entryY=1;entryDx=0;entryDy=0;" parent="1" source="9hDTRU5c5Y0XLatv_8RX-8" target="9hDTRU5c5Y0XLatv_8RX-4" edge="1">
          <mxGeometry width="160" relative="1" as="geometry">
            <mxPoint x="940" y="590" as="sourcePoint" />
            <mxPoint x="1100" y="590" as="targetPoint" />
          </mxGeometry>
        </mxCell>
        <mxCell id="9hDTRU5c5Y0XLatv_8RX-13" value="LinkedList" style="swimlane;fontStyle=1;align=center;verticalAlign=top;childLayout=stackLayout;horizontal=1;startSize=26;horizontalStack=0;resizeParent=1;resizeParentMax=0;resizeLast=0;collapsible=1;marginBottom=0;whiteSpace=wrap;html=1;" parent="1" vertex="1" collapsed="1">
          <mxGeometry x="705" y="750" width="100" height="30" as="geometry">
            <mxRectangle x="615" y="750" width="160" height="86" as="alternateBounds" />
          </mxGeometry>
        </mxCell>
        <mxCell id="9hDTRU5c5Y0XLatv_8RX-14" value="+ field: type" style="text;strokeColor=none;fillColor=none;align=left;verticalAlign=top;spacingLeft=4;spacingRight=4;overflow=hidden;rotatable=0;points=[[0,0.5],[1,0.5]];portConstraint=eastwest;whiteSpace=wrap;html=1;" parent="9hDTRU5c5Y0XLatv_8RX-13" vertex="1">
          <mxGeometry y="26" width="160" height="26" as="geometry" />
        </mxCell>
        <mxCell id="9hDTRU5c5Y0XLatv_8RX-15" value="" style="line;strokeWidth=1;fillColor=none;align=left;verticalAlign=middle;spacingTop=-1;spacingLeft=3;spacingRight=3;rotatable=0;labelPosition=right;points=[];portConstraint=eastwest;strokeColor=inherit;" parent="9hDTRU5c5Y0XLatv_8RX-13" vertex="1">
          <mxGeometry y="52" width="160" height="8" as="geometry" />
        </mxCell>
        <mxCell id="9hDTRU5c5Y0XLatv_8RX-16" value="+ method(type): type" style="text;strokeColor=none;fillColor=none;align=left;verticalAlign=top;spacingLeft=4;spacingRight=4;overflow=hidden;rotatable=0;points=[[0,0.5],[1,0.5]];portConstraint=eastwest;whiteSpace=wrap;html=1;" parent="9hDTRU5c5Y0XLatv_8RX-13" vertex="1">
          <mxGeometry y="60" width="160" height="26" as="geometry" />
        </mxCell>
        <mxCell id="9hDTRU5c5Y0XLatv_8RX-18" value="" style="endArrow=block;dashed=1;endFill=0;endSize=12;html=1;rounded=0;exitX=0.5;exitY=0;exitDx=0;exitDy=0;entryX=0.5;entryY=1;entryDx=0;entryDy=0;" parent="1" source="9hDTRU5c5Y0XLatv_8RX-13" target="9hDTRU5c5Y0XLatv_8RX-4" edge="1">
          <mxGeometry width="160" relative="1" as="geometry">
            <mxPoint x="960" y="690" as="sourcePoint" />
            <mxPoint x="780" y="690" as="targetPoint" />
          </mxGeometry>
        </mxCell>
        <mxCell id="9hDTRU5c5Y0XLatv_8RX-19" value="HashSet" style="swimlane;fontStyle=1;align=center;verticalAlign=top;childLayout=stackLayout;horizontal=1;startSize=26;horizontalStack=0;resizeParent=1;resizeParentMax=0;resizeLast=0;collapsible=1;marginBottom=0;whiteSpace=wrap;html=1;" parent="1" vertex="1" collapsed="1">
          <mxGeometry x="957.5" y="866" width="90" height="30" as="geometry">
            <mxRectangle x="1030" y="750" width="160" height="86" as="alternateBounds" />
          </mxGeometry>
        </mxCell>
        <mxCell id="9hDTRU5c5Y0XLatv_8RX-20" value="+ field: type" style="text;strokeColor=none;fillColor=none;align=left;verticalAlign=top;spacingLeft=4;spacingRight=4;overflow=hidden;rotatable=0;points=[[0,0.5],[1,0.5]];portConstraint=eastwest;whiteSpace=wrap;html=1;" parent="9hDTRU5c5Y0XLatv_8RX-19" vertex="1">
          <mxGeometry y="26" width="160" height="26" as="geometry" />
        </mxCell>
        <mxCell id="9hDTRU5c5Y0XLatv_8RX-21" value="" style="line;strokeWidth=1;fillColor=none;align=left;verticalAlign=middle;spacingTop=-1;spacingLeft=3;spacingRight=3;rotatable=0;labelPosition=right;points=[];portConstraint=eastwest;strokeColor=inherit;" parent="9hDTRU5c5Y0XLatv_8RX-19" vertex="1">
          <mxGeometry y="52" width="160" height="8" as="geometry" />
        </mxCell>
        <mxCell id="9hDTRU5c5Y0XLatv_8RX-22" value="+ method(type): type" style="text;strokeColor=none;fillColor=none;align=left;verticalAlign=top;spacingLeft=4;spacingRight=4;overflow=hidden;rotatable=0;points=[[0,0.5],[1,0.5]];portConstraint=eastwest;whiteSpace=wrap;html=1;" parent="9hDTRU5c5Y0XLatv_8RX-19" vertex="1">
          <mxGeometry y="60" width="160" height="26" as="geometry" />
        </mxCell>
        <mxCell id="9hDTRU5c5Y0XLatv_8RX-23" value="" style="endArrow=block;dashed=1;endFill=0;endSize=12;html=1;rounded=0;exitX=0.5;exitY=0;exitDx=0;exitDy=0;entryX=0.25;entryY=1;entryDx=0;entryDy=0;" parent="1" source="9hDTRU5c5Y0XLatv_8RX-19" target="9hDTRU5c5Y0XLatv_8RX-6" edge="1">
          <mxGeometry width="160" relative="1" as="geometry">
            <mxPoint x="887.5" y="690" as="sourcePoint" />
            <mxPoint x="1047.5" y="690" as="targetPoint" />
          </mxGeometry>
        </mxCell>
        <mxCell id="9hDTRU5c5Y0XLatv_8RX-24" value="TreeSet" style="swimlane;fontStyle=1;align=center;verticalAlign=top;childLayout=stackLayout;horizontal=1;startSize=26;horizontalStack=0;resizeParent=1;resizeParentMax=0;resizeLast=0;collapsible=1;marginBottom=0;whiteSpace=wrap;html=1;" parent="1" vertex="1" collapsed="1">
          <mxGeometry x="1112.5" y="866" width="80" height="30" as="geometry">
            <mxRectangle x="1205" y="860" width="160" height="86" as="alternateBounds" />
          </mxGeometry>
        </mxCell>
        <mxCell id="9hDTRU5c5Y0XLatv_8RX-25" value="+ field: type" style="text;strokeColor=none;fillColor=none;align=left;verticalAlign=top;spacingLeft=4;spacingRight=4;overflow=hidden;rotatable=0;points=[[0,0.5],[1,0.5]];portConstraint=eastwest;whiteSpace=wrap;html=1;" parent="9hDTRU5c5Y0XLatv_8RX-24" vertex="1">
          <mxGeometry y="26" width="160" height="26" as="geometry" />
        </mxCell>
        <mxCell id="9hDTRU5c5Y0XLatv_8RX-26" value="" style="line;strokeWidth=1;fillColor=none;align=left;verticalAlign=middle;spacingTop=-1;spacingLeft=3;spacingRight=3;rotatable=0;labelPosition=right;points=[];portConstraint=eastwest;strokeColor=inherit;" parent="9hDTRU5c5Y0XLatv_8RX-24" vertex="1">
          <mxGeometry y="52" width="160" height="8" as="geometry" />
        </mxCell>
        <mxCell id="9hDTRU5c5Y0XLatv_8RX-27" value="+ method(type): type" style="text;strokeColor=none;fillColor=none;align=left;verticalAlign=top;spacingLeft=4;spacingRight=4;overflow=hidden;rotatable=0;points=[[0,0.5],[1,0.5]];portConstraint=eastwest;whiteSpace=wrap;html=1;" parent="9hDTRU5c5Y0XLatv_8RX-24" vertex="1">
          <mxGeometry y="60" width="160" height="26" as="geometry" />
        </mxCell>
        <mxCell id="9hDTRU5c5Y0XLatv_8RX-28" value="" style="endArrow=block;dashed=1;endFill=0;endSize=12;html=1;rounded=0;exitX=0.5;exitY=0;exitDx=0;exitDy=0;entryX=0.5;entryY=1;entryDx=0;entryDy=0;" parent="1" source="9hDTRU5c5Y0XLatv_8RX-24" target="9hDTRU5c5Y0XLatv_8RX-29" edge="1">
          <mxGeometry width="160" relative="1" as="geometry">
            <mxPoint x="917.5" y="856" as="sourcePoint" />
            <mxPoint x="1227.5" y="886" as="targetPoint" />
          </mxGeometry>
        </mxCell>
        <mxCell id="9hDTRU5c5Y0XLatv_8RX-29" value="«interface»&lt;br&gt;&lt;b&gt;SortedSet&lt;/b&gt;" style="html=1;whiteSpace=wrap;" parent="1" vertex="1">
          <mxGeometry x="1097.5" y="756" width="110" height="50" as="geometry" />
        </mxCell>
        <mxCell id="9hDTRU5c5Y0XLatv_8RX-30" value="" style="endArrow=block;dashed=1;endFill=0;endSize=12;html=1;rounded=0;entryX=0.75;entryY=1;entryDx=0;entryDy=0;exitX=0.5;exitY=0;exitDx=0;exitDy=0;" parent="1" source="9hDTRU5c5Y0XLatv_8RX-29" target="9hDTRU5c5Y0XLatv_8RX-6" edge="1">
          <mxGeometry width="160" relative="1" as="geometry">
            <mxPoint x="857.5" y="710" as="sourcePoint" />
            <mxPoint x="1017.5" y="710" as="targetPoint" />
          </mxGeometry>
        </mxCell>
        <mxCell id="9hDTRU5c5Y0XLatv_8RX-31" value="«interface»&lt;br&gt;&lt;b&gt;Map&amp;lt;K,V&amp;gt;&lt;/b&gt;" style="html=1;whiteSpace=wrap;" parent="1" vertex="1">
          <mxGeometry x="1580" y="400" width="110" height="50" as="geometry" />
        </mxCell>
        <mxCell id="9hDTRU5c5Y0XLatv_8RX-32" value="HashMap" style="swimlane;fontStyle=1;align=center;verticalAlign=top;childLayout=stackLayout;horizontal=1;startSize=26;horizontalStack=0;resizeParent=1;resizeParentMax=0;resizeLast=0;collapsible=1;marginBottom=0;whiteSpace=wrap;html=1;" parent="1" vertex="1" collapsed="1">
          <mxGeometry x="1420" y="520" width="90" height="30" as="geometry">
            <mxRectangle x="1550" y="520" width="160" height="86" as="alternateBounds" />
          </mxGeometry>
        </mxCell>
        <mxCell id="9hDTRU5c5Y0XLatv_8RX-33" value="+ field: type" style="text;strokeColor=none;fillColor=none;align=left;verticalAlign=top;spacingLeft=4;spacingRight=4;overflow=hidden;rotatable=0;points=[[0,0.5],[1,0.5]];portConstraint=eastwest;whiteSpace=wrap;html=1;" parent="9hDTRU5c5Y0XLatv_8RX-32" vertex="1">
          <mxGeometry y="26" width="160" height="26" as="geometry" />
        </mxCell>
        <mxCell id="9hDTRU5c5Y0XLatv_8RX-34" value="" style="line;strokeWidth=1;fillColor=none;align=left;verticalAlign=middle;spacingTop=-1;spacingLeft=3;spacingRight=3;rotatable=0;labelPosition=right;points=[];portConstraint=eastwest;strokeColor=inherit;" parent="9hDTRU5c5Y0XLatv_8RX-32" vertex="1">
          <mxGeometry y="52" width="160" height="8" as="geometry" />
        </mxCell>
        <mxCell id="9hDTRU5c5Y0XLatv_8RX-35" value="+ method(type): type" style="text;strokeColor=none;fillColor=none;align=left;verticalAlign=top;spacingLeft=4;spacingRight=4;overflow=hidden;rotatable=0;points=[[0,0.5],[1,0.5]];portConstraint=eastwest;whiteSpace=wrap;html=1;" parent="9hDTRU5c5Y0XLatv_8RX-32" vertex="1">
          <mxGeometry y="60" width="160" height="26" as="geometry" />
        </mxCell>
        <mxCell id="9hDTRU5c5Y0XLatv_8RX-36" value="" style="endArrow=block;dashed=1;endFill=0;endSize=12;html=1;rounded=0;exitX=0.5;exitY=0;exitDx=0;exitDy=0;entryX=0.25;entryY=1;entryDx=0;entryDy=0;" parent="1" source="9hDTRU5c5Y0XLatv_8RX-32" target="9hDTRU5c5Y0XLatv_8RX-31" edge="1">
          <mxGeometry width="160" relative="1" as="geometry">
            <mxPoint x="1570" y="540" as="sourcePoint" />
            <mxPoint x="1625" y="450" as="targetPoint" />
          </mxGeometry>
        </mxCell>
        <mxCell id="9hDTRU5c5Y0XLatv_8RX-37" value="TreeMap" style="swimlane;fontStyle=1;align=center;verticalAlign=top;childLayout=stackLayout;horizontal=1;startSize=26;horizontalStack=0;resizeParent=1;resizeParentMax=0;resizeLast=0;collapsible=1;marginBottom=0;whiteSpace=wrap;html=1;" parent="1" vertex="1" collapsed="1">
          <mxGeometry x="1770" y="630" width="90" height="30" as="geometry">
            <mxRectangle x="2095" y="670" width="160" height="86" as="alternateBounds" />
          </mxGeometry>
        </mxCell>
        <mxCell id="9hDTRU5c5Y0XLatv_8RX-38" value="+ field: type" style="text;strokeColor=none;fillColor=none;align=left;verticalAlign=top;spacingLeft=4;spacingRight=4;overflow=hidden;rotatable=0;points=[[0,0.5],[1,0.5]];portConstraint=eastwest;whiteSpace=wrap;html=1;" parent="9hDTRU5c5Y0XLatv_8RX-37" vertex="1">
          <mxGeometry y="26" width="160" height="26" as="geometry" />
        </mxCell>
        <mxCell id="9hDTRU5c5Y0XLatv_8RX-39" value="" style="line;strokeWidth=1;fillColor=none;align=left;verticalAlign=middle;spacingTop=-1;spacingLeft=3;spacingRight=3;rotatable=0;labelPosition=right;points=[];portConstraint=eastwest;strokeColor=inherit;" parent="9hDTRU5c5Y0XLatv_8RX-37" vertex="1">
          <mxGeometry y="52" width="160" height="8" as="geometry" />
        </mxCell>
        <mxCell id="9hDTRU5c5Y0XLatv_8RX-40" value="+ method(type): type" style="text;strokeColor=none;fillColor=none;align=left;verticalAlign=top;spacingLeft=4;spacingRight=4;overflow=hidden;rotatable=0;points=[[0,0.5],[1,0.5]];portConstraint=eastwest;whiteSpace=wrap;html=1;" parent="9hDTRU5c5Y0XLatv_8RX-37" vertex="1">
          <mxGeometry y="60" width="160" height="26" as="geometry" />
        </mxCell>
        <mxCell id="9hDTRU5c5Y0XLatv_8RX-41" value="" style="endArrow=block;dashed=1;endFill=0;endSize=12;html=1;rounded=0;entryX=0.5;entryY=1;entryDx=0;entryDy=0;exitX=0.5;exitY=0;exitDx=0;exitDy=0;" parent="1" source="9hDTRU5c5Y0XLatv_8RX-37" target="9hDTRU5c5Y0XLatv_8RX-63" edge="1">
          <mxGeometry width="160" relative="1" as="geometry">
            <mxPoint x="1570" y="590" as="sourcePoint" />
            <mxPoint x="1730" y="590" as="targetPoint" />
          </mxGeometry>
        </mxCell>
        <mxCell id="9hDTRU5c5Y0XLatv_8RX-42" value="Vector" style="swimlane;fontStyle=1;align=center;verticalAlign=top;childLayout=stackLayout;horizontal=1;startSize=26;horizontalStack=0;resizeParent=1;resizeParentMax=0;resizeLast=0;collapsible=1;marginBottom=0;whiteSpace=wrap;html=1;fillColor=#f5f5f5;fontColor=#333333;strokeColor=#666666;" parent="1" vertex="1" collapsed="1">
          <mxGeometry x="840" y="750" width="80" height="30" as="geometry">
            <mxRectangle x="790" y="750" width="160" height="86" as="alternateBounds" />
          </mxGeometry>
        </mxCell>
        <mxCell id="9hDTRU5c5Y0XLatv_8RX-43" value="+ field: type" style="text;strokeColor=#666666;fillColor=#f5f5f5;align=left;verticalAlign=top;spacingLeft=4;spacingRight=4;overflow=hidden;rotatable=0;points=[[0,0.5],[1,0.5]];portConstraint=eastwest;whiteSpace=wrap;html=1;fontColor=#333333;" parent="9hDTRU5c5Y0XLatv_8RX-42" vertex="1">
          <mxGeometry y="26" width="160" height="26" as="geometry" />
        </mxCell>
        <mxCell id="9hDTRU5c5Y0XLatv_8RX-44" value="" style="line;strokeWidth=1;fillColor=#f5f5f5;align=left;verticalAlign=middle;spacingTop=-1;spacingLeft=3;spacingRight=3;rotatable=0;labelPosition=right;points=[];portConstraint=eastwest;strokeColor=#666666;fontColor=#333333;" parent="9hDTRU5c5Y0XLatv_8RX-42" vertex="1">
          <mxGeometry y="52" width="160" height="8" as="geometry" />
        </mxCell>
        <mxCell id="9hDTRU5c5Y0XLatv_8RX-45" value="+ method(type): type" style="text;strokeColor=#666666;fillColor=#f5f5f5;align=left;verticalAlign=top;spacingLeft=4;spacingRight=4;overflow=hidden;rotatable=0;points=[[0,0.5],[1,0.5]];portConstraint=eastwest;whiteSpace=wrap;html=1;fontColor=#333333;" parent="9hDTRU5c5Y0XLatv_8RX-42" vertex="1">
          <mxGeometry y="60" width="160" height="26" as="geometry" />
        </mxCell>
        <mxCell id="9hDTRU5c5Y0XLatv_8RX-46" value="" style="endArrow=block;dashed=1;endFill=0;endSize=12;html=1;rounded=0;entryX=0.75;entryY=1;entryDx=0;entryDy=0;exitX=0.5;exitY=0;exitDx=0;exitDy=0;" parent="1" source="9hDTRU5c5Y0XLatv_8RX-42" target="9hDTRU5c5Y0XLatv_8RX-4" edge="1">
          <mxGeometry width="160" relative="1" as="geometry">
            <mxPoint x="920" y="840" as="sourcePoint" />
            <mxPoint x="1080" y="840" as="targetPoint" />
          </mxGeometry>
        </mxCell>
        <mxCell id="9hDTRU5c5Y0XLatv_8RX-47" value="Hashtable" style="swimlane;fontStyle=1;align=center;verticalAlign=top;childLayout=stackLayout;horizontal=1;startSize=26;horizontalStack=0;resizeParent=1;resizeParentMax=0;resizeLast=0;collapsible=1;marginBottom=0;whiteSpace=wrap;html=1;fillColor=#f5f5f5;fontColor=#333333;strokeColor=#666666;" parent="1" vertex="1" collapsed="1">
          <mxGeometry x="1585" y="520" width="100" height="30" as="geometry">
            <mxRectangle x="1845" y="520" width="160" height="86" as="alternateBounds" />
          </mxGeometry>
        </mxCell>
        <mxCell id="9hDTRU5c5Y0XLatv_8RX-48" value="+ field: type" style="text;strokeColor=#666666;fillColor=#f5f5f5;align=left;verticalAlign=top;spacingLeft=4;spacingRight=4;overflow=hidden;rotatable=0;points=[[0,0.5],[1,0.5]];portConstraint=eastwest;whiteSpace=wrap;html=1;fontColor=#333333;" parent="9hDTRU5c5Y0XLatv_8RX-47" vertex="1">
          <mxGeometry y="26" width="160" height="26" as="geometry" />
        </mxCell>
        <mxCell id="9hDTRU5c5Y0XLatv_8RX-49" value="" style="line;strokeWidth=1;fillColor=#f5f5f5;align=left;verticalAlign=middle;spacingTop=-1;spacingLeft=3;spacingRight=3;rotatable=0;labelPosition=right;points=[];portConstraint=eastwest;strokeColor=#666666;fontColor=#333333;" parent="9hDTRU5c5Y0XLatv_8RX-47" vertex="1">
          <mxGeometry y="52" width="160" height="8" as="geometry" />
        </mxCell>
        <mxCell id="9hDTRU5c5Y0XLatv_8RX-50" value="+ method(type): type" style="text;strokeColor=#666666;fillColor=#f5f5f5;align=left;verticalAlign=top;spacingLeft=4;spacingRight=4;overflow=hidden;rotatable=0;points=[[0,0.5],[1,0.5]];portConstraint=eastwest;whiteSpace=wrap;html=1;fontColor=#333333;" parent="9hDTRU5c5Y0XLatv_8RX-47" vertex="1">
          <mxGeometry y="60" width="160" height="26" as="geometry" />
        </mxCell>
        <mxCell id="9hDTRU5c5Y0XLatv_8RX-51" value="" style="endArrow=block;dashed=1;endFill=0;endSize=12;html=1;rounded=0;entryX=0.5;entryY=1;entryDx=0;entryDy=0;exitX=0.5;exitY=0;exitDx=0;exitDy=0;" parent="1" source="9hDTRU5c5Y0XLatv_8RX-47" target="9hDTRU5c5Y0XLatv_8RX-31" edge="1">
          <mxGeometry width="160" relative="1" as="geometry">
            <mxPoint x="1520" y="550" as="sourcePoint" />
            <mxPoint x="1680" y="550" as="targetPoint" />
          </mxGeometry>
        </mxCell>
        <mxCell id="9hDTRU5c5Y0XLatv_8RX-58" value="Properties" style="swimlane;fontStyle=1;align=center;verticalAlign=top;childLayout=stackLayout;horizontal=1;startSize=26;horizontalStack=0;resizeParent=1;resizeParentMax=0;resizeLast=0;collapsible=1;marginBottom=0;whiteSpace=wrap;html=1;" parent="1" vertex="1" collapsed="1">
          <mxGeometry x="1585" y="630" width="100" height="30" as="geometry">
            <mxRectangle x="1845" y="670" width="160" height="86" as="alternateBounds" />
          </mxGeometry>
        </mxCell>
        <mxCell id="9hDTRU5c5Y0XLatv_8RX-59" value="+ field: type" style="text;strokeColor=none;fillColor=none;align=left;verticalAlign=top;spacingLeft=4;spacingRight=4;overflow=hidden;rotatable=0;points=[[0,0.5],[1,0.5]];portConstraint=eastwest;whiteSpace=wrap;html=1;" parent="9hDTRU5c5Y0XLatv_8RX-58" vertex="1">
          <mxGeometry y="26" width="160" height="26" as="geometry" />
        </mxCell>
        <mxCell id="9hDTRU5c5Y0XLatv_8RX-60" value="" style="line;strokeWidth=1;fillColor=none;align=left;verticalAlign=middle;spacingTop=-1;spacingLeft=3;spacingRight=3;rotatable=0;labelPosition=right;points=[];portConstraint=eastwest;strokeColor=inherit;" parent="9hDTRU5c5Y0XLatv_8RX-58" vertex="1">
          <mxGeometry y="52" width="160" height="8" as="geometry" />
        </mxCell>
        <mxCell id="9hDTRU5c5Y0XLatv_8RX-61" value="+ method(type): type" style="text;strokeColor=none;fillColor=none;align=left;verticalAlign=top;spacingLeft=4;spacingRight=4;overflow=hidden;rotatable=0;points=[[0,0.5],[1,0.5]];portConstraint=eastwest;whiteSpace=wrap;html=1;" parent="9hDTRU5c5Y0XLatv_8RX-58" vertex="1">
          <mxGeometry y="60" width="160" height="26" as="geometry" />
        </mxCell>
        <mxCell id="9hDTRU5c5Y0XLatv_8RX-62" value="Extends" style="endArrow=block;endSize=16;endFill=0;html=1;rounded=0;exitX=0.5;exitY=0;exitDx=0;exitDy=0;entryX=0.5;entryY=1;entryDx=0;entryDy=0;" parent="1" source="9hDTRU5c5Y0XLatv_8RX-58" target="9hDTRU5c5Y0XLatv_8RX-47" edge="1">
          <mxGeometry width="160" relative="1" as="geometry">
            <mxPoint x="1790" y="550" as="sourcePoint" />
            <mxPoint x="1630" y="620" as="targetPoint" />
          </mxGeometry>
        </mxCell>
        <mxCell id="9hDTRU5c5Y0XLatv_8RX-63" value="«interface»&lt;br&gt;&lt;b&gt;SortedMap&lt;/b&gt;" style="html=1;whiteSpace=wrap;" parent="1" vertex="1">
          <mxGeometry x="1760" y="520" width="110" height="50" as="geometry" />
        </mxCell>
        <mxCell id="9hDTRU5c5Y0XLatv_8RX-64" value="" style="endArrow=block;dashed=1;endFill=0;endSize=12;html=1;rounded=0;entryX=0.75;entryY=1;entryDx=0;entryDy=0;exitX=0.5;exitY=0;exitDx=0;exitDy=0;" parent="1" source="9hDTRU5c5Y0XLatv_8RX-63" target="9hDTRU5c5Y0XLatv_8RX-31" edge="1">
          <mxGeometry width="160" relative="1" as="geometry">
            <mxPoint x="1590" y="580" as="sourcePoint" />
            <mxPoint x="1750" y="580" as="targetPoint" />
          </mxGeometry>
        </mxCell>
        <mxCell id="9hDTRU5c5Y0XLatv_8RX-65" value="&lt;span style=&quot;background-color: initial;&quot;&gt;底层数据结构采用数组&amp;nbsp;&amp;nbsp;&lt;/span&gt;&lt;span style=&quot;background-color: initial;&quot;&gt;非线程安全&lt;/span&gt;" style="text;html=1;strokeColor=none;fillColor=none;align=left;verticalAlign=middle;whiteSpace=wrap;rounded=0;" parent="1" vertex="1">
          <mxGeometry x="575" y="755" width="100" height="90" as="geometry" />
        </mxCell>
        <mxCell id="9hDTRU5c5Y0XLatv_8RX-69" value="底层数据结构采用双向链表" style="text;html=1;strokeColor=none;fillColor=none;align=center;verticalAlign=middle;whiteSpace=wrap;rounded=0;" parent="1" vertex="1">
          <mxGeometry x="712.5" y="785" width="85" height="30" as="geometry" />
        </mxCell>
        <mxCell id="9hDTRU5c5Y0XLatv_8RX-70" value="&lt;div style=&quot;text-align: left;&quot;&gt;&lt;span style=&quot;background-color: initial;&quot;&gt;底层数据结构采用数组&amp;nbsp; 线程安全&lt;/span&gt;&lt;/div&gt;&lt;div style=&quot;text-align: left;&quot;&gt;&lt;span style=&quot;background-color: initial;&quot;&gt;有其他方法保证&lt;/span&gt;&lt;/div&gt;&lt;div style=&quot;text-align: left;&quot;&gt;&lt;span style=&quot;background-color: initial;&quot;&gt;线程安全 不常用&lt;/span&gt;&lt;/div&gt;" style="text;html=1;strokeColor=none;fillColor=none;align=center;verticalAlign=middle;whiteSpace=wrap;rounded=0;" parent="1" vertex="1">
          <mxGeometry x="830" y="785" width="100" height="54" as="geometry" />
        </mxCell>
        <mxCell id="9hDTRU5c5Y0XLatv_8RX-71" value="存储元素有序(有下标)可重复&amp;nbsp;" style="text;html=1;strokeColor=none;fillColor=none;align=left;verticalAlign=middle;whiteSpace=wrap;rounded=0;" parent="1" vertex="1">
          <mxGeometry x="575" y="640" width="125" height="50" as="geometry" />
        </mxCell>
        <mxCell id="9hDTRU5c5Y0XLatv_8RX-72" value="存储元素无序不可重复" style="text;html=1;strokeColor=none;fillColor=none;align=center;verticalAlign=middle;whiteSpace=wrap;rounded=0;" parent="1" vertex="1">
          <mxGeometry x="1127.5" y="650" width="80" height="30" as="geometry" />
        </mxCell>
        <mxCell id="9hDTRU5c5Y0XLatv_8RX-73" value="HashSet 实例化时底层创建 HashMap 对象&lt;br&gt;（哈希表数据结构）" style="text;html=1;strokeColor=none;fillColor=none;align=center;verticalAlign=middle;whiteSpace=wrap;rounded=0;" parent="1" vertex="1">
          <mxGeometry x="940" y="896" width="125" height="54" as="geometry" />
        </mxCell>
        <mxCell id="9hDTRU5c5Y0XLatv_8RX-74" value="TreeSet 实例化时底层创建 TreeMap 对象&lt;br&gt;（二叉树数据结构）" style="text;html=1;strokeColor=none;fillColor=none;align=center;verticalAlign=middle;whiteSpace=wrap;rounded=0;" parent="1" vertex="1">
          <mxGeometry x="1087.5" y="892" width="130" height="62" as="geometry" />
        </mxCell>
        <mxCell id="9hDTRU5c5Y0XLatv_8RX-75" value="&lt;font style=&quot;font-size: 25px;&quot;&gt;集合框架&lt;/font&gt;" style="text;html=1;strokeColor=none;fillColor=none;align=center;verticalAlign=middle;whiteSpace=wrap;rounded=0;" parent="1" vertex="1">
          <mxGeometry x="1217.5" y="270" width="200" height="30" as="geometry" />
        </mxCell>
        <mxCell id="9hDTRU5c5Y0XLatv_8RX-77" value="存储的元素会自动排序&lt;br&gt;是可排序集合" style="text;html=1;strokeColor=none;fillColor=none;align=center;verticalAlign=middle;whiteSpace=wrap;rounded=0;" parent="1" vertex="1">
          <mxGeometry x="1217.5" y="759" width="122.5" height="44" as="geometry" />
        </mxCell>
      </root>
    </mxGraphModel>
  </diagram>
</mxfile>
